# xmcd
#
# Track frame offsets:
#	150
#	17156
#	38402
#	60687
#	77917
#	100009
#	117174
#	134266
#	154670
#	177118
#
# Disc length: 2629 seconds
#
# Revision: 1
# Processed by: cddbd v1.5.1PL2 Copyright (c) Steve Scherf et al.
# Submitted via: audiograbber 1.81.02
#
DISCID=720a430a
DTITLE=Bebe and Cece Winans - treasures - A Collection Of Classic Hits (www.gerth
DTITLE=de)
DYEAR=2006
DGENRE=Gospel
TTITLE0=Celebrate New Life
TTITLE1=Heaven
TTITLE2=Change Your Nature
TTITLE3=I Don't Know Why
TTITLE4=Hold Up The Light
TTITLE5=In Return
TTITLE6=Bridge Over Troubled Water
TTITLE7=Trust Him
TTITLE8=Ooh Child
TTITLE9=He's Coming Soon
EXTD=
EXTT0=
EXTT1=
EXTT2=
EXTT3=
EXTT4=
EXTT5=
EXTT6=
EXTT7=
EXTT8=
EXTT9=
PLAYORDER=
